PathFileType	4	(X/Y/Z)	D:\TRACE\v60_Jaco2_6-2-23\v60_baseline_4-v60.trc
DataRate	CameraRate	NumFrames	NumMarkers	Units	OrigDataRate	OrigDataStartFrame	OrigNumFrames
100.00	100.00	      35	9	mm	100.00	5688	      6500
Frame#	Time	front left toe			Front right toe			aft left toe			aft right toe			Arm			FL body			FR body			AL Body			AR Body			
		X1	Y1	Z1	X2	Y2	Z2	X3	Y3	Z3	X4	Y4	Z4	X5	Y5	Z5	X6	Y6	Z6	X7	Y7	Z7	X8	Y8	Z8	X9	Y9	Z9	

5688	56.870	-135.74899	17.82557	-237.90973	243.65948	123.66669	-254.00725	-96.64481	123.32884	392.24820	274.81674	15.97203	365.46463	-46.49786	1212.82629	-360.27875	-26.51801	581.18481	-370.16202	133.50243	579.63690	-379.22812	30.21373	556.35333	574.31195	186.75900	549.71594	565.33453	
5689	56.880	-135.81126	17.86133	-237.83176	243.04054	116.05733	-252.50713	-97.31731	117.13882	394.51782	275.04648	16.05281	365.55469	-45.67491	1212.77209	-359.84259	-26.51043	581.12909	-369.29196	133.74904	579.88940	-379.20874	30.59829	556.44818	574.73279	187.21609	549.62750	565.84210	
5690	56.890	-135.91887	17.80308	-237.74809	243.48212	108.49087	-250.79768	-98.04738	109.92125	396.68298	275.02249	15.97623	365.50467	-45.38213	1212.60852	-359.51904	-26.97733	580.85742	-368.51334	133.21300	579.86371	-378.85223	31.48679	556.15356	575.45721	188.28206	549.50507	566.08569	
5691	56.900	-136.01672	17.72537	-237.69376	243.95485	100.82444	-249.83604	-97.81918	100.96954	398.59006	275.08585	15.83490	365.49344	-44.90100	1212.45947	-358.50943	-27.39049	580.64343	-368.10315	132.96623	579.49231	-378.48260	31.58665	556.01941	575.71228	188.75090	549.23193	566.74170	
5692	56.910	-136.01392	17.49853	-237.61403	243.40164	92.32368	-248.71043	-97.76265	91.92841	400.67599	275.18747	15.84397	365.51300	-45.88173	1212.12720	-358.14041	-27.45596	580.47101	-367.50101	132.23967	578.78235	-376.95325	31.56170	556.21100	576.49164	188.72729	549.03357	567.33728	
5693	56.920	-136.01874	17.44394	-237.59229	243.31200	83.82541	-247.77280	-97.27458	83.10455	401.84259	275.25510	15.80548	365.60013	-45.81647	1212.26880	-357.40500	-26.80478	579.89618	-366.48483	132.25432	578.62616	-376.94354	32.20710	556.03088	577.29724	189.06247	548.98615	567.61414	
5694	56.930	-136.06001	17.44072	-237.52902	242.83678	75.02428	-246.71170	-97.04227	75.02595	402.50150	275.22870	15.77482	365.64307	-45.76095	1212.29846	-356.72330	-27.88748	580.49841	-366.26263	131.87703	578.46985	-376.60825	32.49025	556.26105	577.44885	189.47581	549.13495	568.40186	
5695	56.940	-136.09735	17.59097	-237.49275	242.39735	66.45579	-245.56233	-97.35032	66.30733	403.05597	275.48785	15.81292	365.68680	-45.30652	1212.39331	-355.97098	-27.90593	580.33307	-365.92422	131.50687	578.60657	-375.98026	32.94731	556.10034	578.04974	189.63078	549.02618	568.70331	
5696	56.950	-136.10368	17.63377	-237.41095	242.61565	57.66253	-244.92070	-98.00437	58.13908	403.57281	275.37314	15.67179	365.63995	-45.59297	1212.17700	-355.91727	-28.36956	580.42267	-365.25848	131.32794	578.60760	-375.62839	33.18511	555.91479	578.52197	189.73935	548.76434	568.95660	
5697	56.960	-136.09091	17.58409	-237.35609	243.64281	49.89052	-244.36195	-97.01917	48.62177	404.19913	275.38675	15.68825	365.64420	-45.11193	1212.05762	-354.99744	-28.70273	580.30249	-364.55847	131.19048	578.60443	-375.04437	33.55171	555.51727	579.25299	189.97505	548.70563	569.66998	
5698	56.970	-136.06265	17.50657	-237.29337	243.66005	41.97746	-244.29211	-96.84966	40.35005	404.27576	275.46713	15.68284	365.63766	-45.13659	1212.19739	-354.25696	-28.75406	580.31659	-364.12939	130.91187	578.62189	-374.68738	33.66799	555.60059	579.67749	190.20262	548.75024	569.95837	
5699	56.980	-136.07262	17.57842	-237.26927	244.17422	34.68660	-244.10245	-96.34124	32.83175	404.72110	275.39865	15.68895	365.64517	-45.42838	1212.32654	-353.92731	-28.96150	580.42572	-363.90060	130.98915	578.96191	-374.84219	33.63796	555.77203	580.02679	191.05049	548.81689	570.24542	
5700	56.990	-136.06895	17.55869	-237.24583	244.20290	28.29729	-244.03032	-96.47736	26.67421	404.47577	275.53439	15.68412	365.67657	-46.57191	1212.46814	-353.28415	-29.41334	580.59460	-363.33817	130.33670	578.78699	-373.99835	33.80571	555.74854	580.46124	190.93747	548.61902	570.63330	
5701	57.000	-136.09595	17.59656	-237.25398	243.87756	21.92048	-244.11282	-96.73860	20.40202	404.26492	275.62180	15.64907	365.78055	-48.07087	1212.14514	-351.86801	-29.33289	580.58411	-362.76111	130.27055	578.83344	-373.50412	34.06384	555.40869	581.05231	190.43915	548.38104	571.01868	
5702	57.010	-136.03119	17.51115	-237.18582	243.95476	19.92772	-246.01746	-97.09514	18.90218	402.38089	275.53772	15.54484	365.70251	-47.55631	1212.21729	-351.89133	-29.69325	580.48590	-362.22913	130.00830	578.87769	-372.87137	34.03282	555.27795	581.43207	190.62630	548.28119	571.44147	
5703	57.020	-135.98721	17.48768	-237.06206	244.28168	16.40731	-245.77544	-97.85211	16.87444	402.46005	275.42746	15.68816	365.77023	-47.82942	1212.00452	-351.60687	-29.67811	580.64307	-361.81915	129.66652	579.01556	-372.30551	34.11415	556.21051	581.72693	190.69144	548.98114	572.04419	
5704	57.030	-135.71828	17.70774	-236.61194	244.99884	17.06864	-245.95441	-97.57023	17.14704	403.52255	275.13797	15.98085	365.93033	-48.74637	1212.39966	-351.37057	-30.15989	581.11938	-361.33612	129.73511	579.69495	-372.63840	34.54070	557.02936	582.62775	191.04291	550.07782	572.22235	
5705	57.040	-135.63643	18.30907	-236.85480	244.50146	16.88588	-246.18820	-97.44691	17.40222	403.44614	274.99384	16.43772	365.87073	-49.53516	1213.45142	-351.36804	-32.00253	582.70697	-360.13876	128.91631	580.97083	-371.76733	34.54360	557.70343	583.25012	191.24516	551.08112	572.79962	
5706	57.050	-134.46533	21.10737	-236.82417	244.05231	16.93895	-245.35732	-96.95213	16.25635	404.02499	274.96048	18.92542	366.12253	-51.06714	1214.35864	-351.01190	-32.35646	583.76758	-359.51379	129.01956	582.67145	-371.54196	34.43361	558.69720	583.39807	191.38963	551.57635	573.37201	
5707	57.060	-130.90221	24.20093	-233.77979	243.72568	17.34741	-246.13007	-97.26810	15.83199	403.64462	272.65161	21.07549	369.73669	-52.77449	1215.61536	-350.13947	-32.90718	585.41284	-359.19968	128.54761	583.71405	-371.32535	34.69238	558.63391	583.62067	191.53447	551.41180	573.46649	
5708	57.070	-127.03447	29.17606	-230.64401	243.89633	17.18505	-245.84706	-97.11686	15.66044	403.75296	269.75378	25.54323	372.70203	-53.94141	1216.49512	-348.64740	-32.87448	585.73517	-359.09750	127.88795	584.45715	-370.85886	34.78733	558.67163	583.94836	191.47731	551.64606	573.56866	
5709	57.080	-125.27068	37.60154	-229.76041	243.92715	16.86154	-246.13478	-96.87252	15.59293	403.64038	267.34604	34.20556	373.33237	-54.17736	1217.12671	-347.40378	-33.31054	585.73743	-358.86169	127.64906	584.75146	-370.61542	34.65211	558.90442	584.24927	191.36024	552.37195	573.72803	
5710	57.090	-124.15166	46.71226	-229.39519	244.12897	16.60236	-246.13768	-96.85523	15.57274	403.79907	266.10638	44.26710	373.24420	-55.82640	1217.11853	-345.37485	-33.28895	585.64520	-358.66852	128.20061	584.81494	-370.44684	34.46983	558.78027	584.50757	191.02924	552.59027	574.11688	
5711	57.100	-124.57118	58.14678	-230.92632	244.04849	16.75739	-245.58061	-96.81246	15.20004	403.83829	267.47046	54.69450	372.95023	-55.41875	1217.53662	-345.83472	-33.59532	585.98260	-358.15475	128.27277	584.89734	-370.05621	33.92336	558.45660	584.86267	190.79443	552.10754	574.49707	
5712	57.110	-125.50105	69.20424	-231.10257	243.98042	16.74735	-245.76671	-96.83194	14.63132	403.70441	271.63614	66.95768	372.59439	-55.77728	1216.81848	-346.05704	-32.95158	585.64899	-357.73523	128.45941	584.85663	-369.73370	33.42482	557.48132	585.14960	190.37950	551.32007	575.59296	
5713	57.120	-126.97511	80.57547	-231.08006	244.05641	16.56483	-245.64519	-96.73882	14.16046	403.70822	273.51248	77.87148	372.64774	-55.64216	1215.64844	-346.07574	-32.69637	585.24310	-357.53375	128.81497	584.66534	-369.20749	32.80610	556.65125	585.52399	188.90025	550.14172	575.25494	
5714	57.130	-128.57205	91.96980	-230.34619	244.18141	16.32944	-245.68671	-97.49560	14.56287	403.63669	274.40741	88.60961	373.30789	-55.63157	1214.43787	-345.85107	-32.64737	584.37628	-357.10635	129.01999	584.17712	-368.64246	32.05477	556.08887	585.74860	189.00710	550.10260	576.08685	
5715	57.140	-128.79199	102.34647	-229.04436	244.21759	16.20684	-245.58681	-97.55216	14.56739	403.57944	274.52719	99.22122	374.64859	-55.08981	1214.27014	-345.23068	-32.14923	583.75452	-357.11496	129.23979	583.53735	-368.21045	31.61058	555.74316	586.31085	188.53732	549.88965	576.59528	
5716	57.150	-128.75751	112.37455	-227.70621	244.43913	16.24371	-245.37656	-97.68280	14.63798	403.62036	272.98251	108.59855	375.89029	-55.74039	1214.35608	-345.01736	-32.28935	583.39246	-356.64886	129.27855	582.89215	-368.03897	31.40967	555.70251	586.55920	188.23813	549.74335	577.12897	
5717	57.160	-128.55188	120.91089	-226.18611	244.47719	16.32333	-245.17050	-97.60098	14.49349	403.75555	273.16641	118.16308	377.71954	-56.91835	1213.76050	-344.01147	-32.27320	582.77417	-356.11401	129.44081	582.05292	-367.53534	30.75113	555.76819	586.89227	187.79700	549.66473	577.37634	
5718	57.170	-128.49481	128.40831	-224.53561	244.53720	16.38904	-245.00679	-97.73903	14.46860	403.84302	272.34894	125.72160	379.15543	-57.10229	1212.83484	-343.95981	-31.53060	581.70874	-355.96054	129.34290	581.55127	-366.61703	30.30987	555.63379	587.30499	187.57629	549.66241	577.90204	
5719	57.180	-128.99776	134.51167	-223.29842	244.39435	16.28978	-244.92728	-99.06809	15.25901	403.64874	272.85208	132.74803	380.36600	-55.50191	1212.23828	-344.28714	-31.53811	581.07361	-355.48776	130.00279	580.96826	-366.29901	30.06793	555.48352	588.10321	186.36632	549.37537	578.64325	
5720	57.190	-130.32016	139.77203	-221.91556	244.44095	16.21980	-244.86995	-99.19492	15.24777	403.73703	273.59790	138.14670	381.03879	-54.60391	1211.33398	-344.87906	-30.85940	580.60962	-355.37949	130.06972	580.65906	-365.94003	29.60464	555.47296	588.66534	186.33859	549.44733	579.00739	
5721	57.200	-131.76318	143.98068	-221.21823	244.46669	16.20201	-244.72418	-99.20431	15.22513	403.75980	274.79718	141.90291	381.86511	-54.17648	1210.91541	-345.55780	-31.39400	580.68170	-354.75836	130.37421	580.43066	-365.43253	29.17173	555.66907	588.83295	185.91545	549.66492	579.99115	
5722	57.210	-132.37065	146.08447	-220.22887	244.45531	16.20699	-244.70229	-99.21360	15.26084	403.80756	275.51785	142.53651	382.88269	-53.57214	1210.78796	-345.56796	-30.70419	580.35651	-354.20099	130.41394	579.94611	-364.45010	28.79653	555.76251	589.12408	185.26060	549.61487	580.23981	
